<svg width="270" height="270" viewBox="0 0 270 270" fill="none" xmlns="http://www.w3.org/2000/svg">
<path d="M99.3073 119.16H103.867V147H99.3073L85.5873 126.24V147H81.0273V119.16H85.5873L99.3073 139.88V119.16ZM122.535 143.16C125.335 143.16 127.615 142.24 129.375 140.4C131.162 138.533 132.055 136.093 132.055 133.08C132.055 130.04 131.162 127.6 129.375 125.76C127.615 123.92 125.335 123 122.535 123C119.735 123 117.442 123.92 115.655 125.76C113.895 127.6 113.015 130.04 113.015 133.08C113.015 136.093 113.895 138.533 115.655 140.4C117.442 142.24 119.735 143.16 122.535 143.16ZM122.535 147.28C118.562 147.28 115.202 145.947 112.455 143.28C109.709 140.587 108.335 137.187 108.335 133.08C108.335 128.947 109.709 125.547 112.455 122.88C115.202 120.187 118.562 118.84 122.535 118.84C126.535 118.84 129.895 120.187 132.615 122.88C135.362 125.547 136.735 128.947 136.735 133.08C136.735 137.187 135.362 140.587 132.615 143.28C129.895 145.947 126.535 147.28 122.535 147.28ZM149.463 147L138.983 119.2H143.863L152.063 142.28L160.343 119.2H165.183L154.743 147H149.463ZM183.508 147V122.76H179.788V118.6H188.108V147H183.508Z" fill="#0047FF"/>
</svg>
