<svg width="48" height="48" viewBox="0 0 48 48" fill="none" xmlns="http://www.w3.org/2000/svg">
<g id="directions_bus">
<mask id="mask0_2246_192" style="mask-type:alpha" maskUnits="userSpaceOnUse" x="0" y="0" width="48" height="48">
<rect id="Bounding box" width="48" height="48" fill="#D9D9D9"/>
</mask>
<g mask="url(#mask0_2246_192)">
<path id="directions_bus_2" d="M12 42C11.4333 42 10.9583 41.8083 10.575 41.425C10.1917 41.0417 10 40.5667 10 40V35.9C9.4 35.2333 8.91667 34.4917 8.55 33.675C8.18333 32.8583 8 31.9667 8 31V12C8 9.23333 9.28333 7.20833 11.85 5.925C14.4167 4.64167 18.4667 4 24 4C29.7333 4 33.8333 4.61667 36.3 5.85C38.7667 7.08333 40 9.13333 40 12V31C40 31.9667 39.8167 32.8583 39.45 33.675C39.0833 34.4917 38.6 35.2333 38 35.9V40C38 40.5667 37.8083 41.0417 37.425 41.425C37.0417 41.8083 36.5667 42 36 42H34C33.4333 42 32.9583 41.8083 32.575 41.425C32.1917 41.0417 32 40.5667 32 40V38H16V40C16 40.5667 15.8083 41.0417 15.425 41.425C15.0417 41.8083 14.5667 42 14 42H12ZM12 20H36V14H12V20ZM17 32C17.8333 32 18.5417 31.7083 19.125 31.125C19.7083 30.5417 20 29.8333 20 29C20 28.1667 19.7083 27.4583 19.125 26.875C18.5417 26.2917 17.8333 26 17 26C16.1667 26 15.4583 26.2917 14.875 26.875C14.2917 27.4583 14 28.1667 14 29C14 29.8333 14.2917 30.5417 14.875 31.125C15.4583 31.7083 16.1667 32 17 32ZM31 32C31.8333 32 32.5417 31.7083 33.125 31.125C33.7083 30.5417 34 29.8333 34 29C34 28.1667 33.7083 27.4583 33.125 26.875C32.5417 26.2917 31.8333 26 31 26C30.1667 26 29.4583 26.2917 28.875 26.875C28.2917 27.4583 28 28.1667 28 29C28 29.8333 28.2917 30.5417 28.875 31.125C29.4583 31.7083 30.1667 32 31 32ZM12.9 10H35.3C34.8 9.43333 33.725 8.95833 32.075 8.575C30.425 8.19167 27.7667 8 24.1 8C20.5333 8 17.925 8.20833 16.275 8.625C14.625 9.04167 13.5 9.5 12.9 10ZM16 34H32C33.1 34 34.0417 33.6083 34.825 32.825C35.6083 32.0417 36 31.1 36 30V24H12V30C12 31.1 12.3917 32.0417 13.175 32.825C13.9583 33.6083 14.9 34 16 34Z" fill="#2A4385"/>
</g>
</g>
</svg>
