<svg width="64" height="64" viewBox="0 0 64 64" fill="none" xmlns="http://www.w3.org/2000/svg">
<g id="assignment">
<mask id="mask0_2190_2497" style="mask-type:alpha" maskUnits="userSpaceOnUse" x="0" y="0" width="64" height="64">
<rect id="Bounding box" width="64" height="64" fill="#2A4385"/>
</mask>
<g mask="url(#mask0_2190_2497)">
<path id="assignment_2" d="M14.9737 54.9671C13.7805 54.9671 12.7643 54.5548 11.9249 53.7303C11.0857 52.9056 10.666 51.9072 10.666 50.7349V17.2798C10.666 16.1075 11.0857 15.1091 11.9249 14.2845C12.7643 13.4599 13.7805 13.0476 14.9737 13.0476H27.507C27.2643 11.7107 27.59 10.5031 28.484 9.42493C29.378 8.34672 30.5498 7.80762 31.9993 7.80762C33.4831 7.80762 34.672 8.34672 35.566 9.42493C36.4601 10.5031 36.7686 11.7107 36.4917 13.0476H49.025C50.2182 13.0476 51.2344 13.4599 52.0738 14.2845C52.913 15.1091 53.3327 16.1075 53.3327 17.2798V50.7349C53.3327 51.9072 52.913 52.9056 52.0738 53.7303C51.2344 54.5548 50.2182 54.9671 49.025 54.9671H14.9737ZM14.9737 52.3472H49.025C49.4352 52.3472 49.8113 52.1792 50.1532 51.8433C50.4951 51.5074 50.666 51.138 50.666 50.7349V17.2798C50.666 16.8768 50.4951 16.5073 50.1532 16.1714C49.8113 15.8355 49.4352 15.6675 49.025 15.6675H14.9737C14.5635 15.6675 14.1874 15.8355 13.8455 16.1714C13.5036 16.5073 13.3327 16.8768 13.3327 17.2798V50.7349C13.3327 51.138 13.5036 51.5074 13.8455 51.8433C14.1874 52.1792 14.5635 52.3472 14.9737 52.3472ZM19.9993 45.1926H35.9993V42.5726H19.9993V45.1926ZM19.9993 35.3173H43.9994V32.6974H19.9993V35.3173ZM19.9993 25.4421H43.9994V22.8221H19.9993V25.4421ZM31.9993 14.2064C32.5771 14.2064 33.0549 14.0208 33.4327 13.6496C33.8105 13.2785 33.9993 12.8091 33.9993 12.2414C33.9993 11.6737 33.8105 11.2043 33.4327 10.8332C33.0549 10.462 32.5771 10.2764 31.9993 10.2764C31.4216 10.2764 30.9438 10.462 30.566 10.8332C30.1882 11.2043 29.9993 11.6737 29.9993 12.2414C29.9993 12.8091 30.1882 13.2785 30.566 13.6496C30.9438 14.0208 31.4216 14.2064 31.9993 14.2064Z" fill="#2A4385"/>
</g>
</g>
</svg>
