<svg width="48" height="48" viewBox="0 0 48 48" fill="none" xmlns="http://www.w3.org/2000/svg">
<g id="tram">
<mask id="mask0_2246_188" style="mask-type:alpha" maskUnits="userSpaceOnUse" x="0" y="0" width="48" height="48">
<rect id="Bounding box" width="48" height="48" fill="#D9D9D9"/>
</mask>
<g mask="url(#mask0_2246_188)">
<path id="tram_2" d="M8 35V16C8 12.7667 9.41667 10.65 12.25 9.65C15.0833 8.65 18.3333 8.1 22 8L23.5 5H14V2H34V5H27.5L26 8C29.9667 8.1 33.2917 8.64167 35.975 9.625C38.6583 10.6083 40 12.7333 40 16V35C40 36.9667 39.325 38.625 37.975 39.975C36.625 41.325 34.9667 42 33 42L36 45V46H32L28 42H20L16 46H12V45L15 42C13.0333 42 11.375 41.325 10.025 39.975C8.675 38.625 8 36.9667 8 35ZM24 36C24.8333 36 25.5417 35.7083 26.125 35.125C26.7083 34.5417 27 33.8333 27 33C27 32.1667 26.7083 31.4583 26.125 30.875C25.5417 30.2917 24.8333 30 24 30C23.1667 30 22.4583 30.2917 21.875 30.875C21.2917 31.4583 21 32.1667 21 33C21 33.8333 21.2917 34.5417 21.875 35.125C22.4583 35.7083 23.1667 36 24 36ZM12 24H36V18H12V24ZM15 38H33C33.8667 38 34.5833 37.7167 35.15 37.15C35.7167 36.5833 36 35.8667 36 35V28H12V35C12 35.8667 12.2833 36.5833 12.85 37.15C13.4167 37.7167 14.1333 38 15 38ZM23.9 12C19.4333 12 16.5667 12.2417 15.3 12.725C14.0333 13.2083 13.2 13.6333 12.8 14H35.3C34.9 13.5333 34.0333 13.0833 32.7 12.65C31.3667 12.2167 28.4333 12 23.9 12Z" fill="#2A4385"/>
</g>
</g>
</svg>
