<svg width="65" height="65" viewBox="0 0 65 65" fill="none" xmlns="http://www.w3.org/2000/svg">
<g id="mark_email_read">
<mask id="mask0_2190_2523" style="mask-type:alpha" maskUnits="userSpaceOnUse" x="0" y="0" width="65" height="65">
<rect id="Bounding box" x="0.869141" y="0.744141" width="64" height="64" fill="#2A4385"/>
</mask>
<g mask="url(#mask0_2190_2523)">
<path id="mark_email_read_2" d="M42.1717 57.0419L32.6845 47.7209L34.5717 45.8668L42.1717 53.3337L57.341 38.43L59.2281 40.2842L42.1717 57.0419ZM32.8691 30.1368L53.382 17.037H12.3563L32.8691 30.1368ZM32.8691 33.0592L11.5358 19.3547V46.8644C11.5358 47.3346 11.6897 47.7209 11.9973 48.0232C12.305 48.3255 12.6982 48.4767 13.1768 48.4767H25.9358L28.6025 51.0966H13.1768C11.9495 51.0966 10.9247 50.6927 10.1025 49.8849C9.28025 49.0771 8.86914 48.0702 8.86914 46.8644V18.6492C8.86914 17.4434 9.28025 16.4366 10.1025 15.6287C10.9247 14.8209 11.9495 14.417 13.1768 14.417H52.5615C53.7888 14.417 54.8136 14.8209 55.6358 15.6287C56.458 16.4366 56.8691 17.4434 56.8691 18.6492V31.5576L54.2025 34.1776V19.3547L32.8691 33.0592Z" fill="#2A4385"/>
</g>
</g>
</svg>
