<svg width="48" height="48" viewBox="0 0 48 48" fill="none" xmlns="http://www.w3.org/2000/svg">
<g id="directions_walk">
<mask id="mask0_2246_149" style="mask-type:alpha" maskUnits="userSpaceOnUse" x="0" y="0" width="48" height="48">
<rect id="Bounding box" width="48" height="48" fill="#D9D9D9"/>
</mask>
<g mask="url(#mask0_2246_149)">
<path id="directions_walk_2" d="M14 46L19.6 17.8L16 19.2V26H12V16.6L22.1 12.3C22.5667 12.1 23.0583 11.9833 23.575 11.95C24.0917 11.9167 24.5833 11.9833 25.05 12.15C25.5167 12.3167 25.9583 12.55 26.375 12.85C26.7917 13.15 27.1333 13.5333 27.4 14L29.4 17.2C30.2667 18.6 31.4417 19.75 32.925 20.65C34.4083 21.55 36.1 22 38 22V26C35.6667 26 33.5833 25.5167 31.75 24.55C29.9167 23.5833 28.35 22.35 27.05 20.85L25.8 27L30 31V46H26V33L21.8 29.8L18.2 46H14ZM27 11C25.9 11 24.9583 10.6083 24.175 9.825C23.3917 9.04167 23 8.1 23 7C23 5.9 23.3917 4.95833 24.175 4.175C24.9583 3.39167 25.9 3 27 3C28.1 3 29.0417 3.39167 29.825 4.175C30.6083 4.95833 31 5.9 31 7C31 8.1 30.6083 9.04167 29.825 9.825C29.0417 10.6083 28.1 11 27 11Z" fill="#2A4385"/>
</g>
</g>
</svg>
