<svg width="48" height="48" viewBox="0 0 48 48" fill="none" xmlns="http://www.w3.org/2000/svg">
<g id="arrow_circle_left">
<mask id="mask0_1930_23" style="mask-type:alpha" maskUnits="userSpaceOnUse" x="0" y="0" width="48" height="48">
<rect id="Bounding box" width="48" height="48" fill="#D9D9D9"/>
</mask>
<g mask="url(#mask0_1930_23)">
<path id="arrow_circle_left_2" d="M24.003 32L26.8031 29.2L23.6029 26H32.0034V22H23.6029L26.8031 18.8L24.003 16L16.0026 24L24.003 32ZM24.003 44C21.2361 44 18.636 43.475 16.2026 42.425C13.7691 41.375 11.6523 39.95 9.85225 38.15C8.05216 36.35 6.62708 34.2333 5.57703 31.8C4.52698 29.3667 4.00195 26.7667 4.00195 24C4.00195 21.2333 4.52698 18.6333 5.57703 16.2C6.62708 13.7667 8.05216 11.65 9.85225 9.85C11.6523 8.05 13.7691 6.625 16.2026 5.575C18.636 4.525 21.2361 4 24.003 4C26.7698 4 29.3699 4.525 31.8033 5.575C34.2368 6.625 36.3536 8.05 38.1537 9.85C39.9538 11.65 41.3788 13.7667 42.4289 16.2C43.4789 18.6333 44.004 21.2333 44.004 24C44.004 26.7667 43.4789 29.3667 42.4289 31.8C41.3788 34.2333 39.9538 36.35 38.1537 38.15C36.3536 39.95 34.2368 41.375 31.8033 42.425C29.3699 43.475 26.7698 44 24.003 44ZM24.003 40C28.4698 40 32.2534 38.45 35.3535 35.35C38.4537 32.25 40.0037 28.4667 40.0037 24C40.0037 19.5333 38.4537 15.75 35.3535 12.65C32.2534 9.55 28.4698 8 24.003 8C19.5361 8 15.7525 9.55 12.6524 12.65C9.55223 15.75 8.00215 19.5333 8.00215 24C8.00215 28.4667 9.55223 32.25 12.6524 35.35C15.7525 38.45 19.5361 40 24.003 40Z" fill="#0047FF"/>
</g>
</g>
</svg>
