<svg width="205" height="40" viewBox="0 0 205 40" fill="none" xmlns="http://www.w3.org/2000/svg">
<g id="Header">
<path id="Logo" fill-rule="evenodd" clip-rule="evenodd" d="M5.91315 38.5606C10.0193 38.5606 12.2692 39.5332 12.2692 39.5332C12.3197 39.5135 12.3899 39.4876 12.4794 39.4569L12.596 39.4179C13.4352 39.1445 15.4999 38.6103 18.5729 38.6103C22.6792 38.6103 24.4861 39.306 24.4861 39.306L24.103 39.8362C24.103 39.8362 23.0075 39.157 18.1891 39.2067C14.9355 39.2402 13.5297 39.6155 12.5945 39.8943C12.4917 39.9398 12.3808 39.9856 12.3208 40L11.6285 39.7865C10.5661 39.5388 9.3524 39.1885 6.29726 39.157C2.00573 39.1127 0.667318 39.6466 0.42588 39.7639L0.404436 39.7747C0.38981 39.7823 0.383123 39.7865 0.383123 39.7865L0 39.2563C0 39.2563 1.80715 38.5606 5.91315 38.5606ZM12.709 0V1.99878C12.9541 2.14309 16.8274 4.50125 17.4345 9.57014H19.3451V10.4469H17.4726V33.3371C19.2606 33.4191 20.73 33.7704 21.1999 33.8938L21.2762 33.9142C21.3297 33.9287 21.3577 33.9369 21.3577 33.9369L22.639 35.8628L22.9564 36.3398L23.1225 36.5893L23.4401 37.0664L24.5333 38.7097C24.5333 38.7097 21.4663 37.8647 18.2907 37.8647C15.7785 37.8647 13.5335 38.4619 12.6505 38.7304L12.2805 38.8588L11.8829 38.7305C11 38.4619 8.75498 37.8647 6.24237 37.8647C3.06684 37.8647 0 38.7097 0 38.7097L1.09328 37.0664L1.41069 36.5893L1.57918 36.3364L1.8944 35.8628L3.17553 33.9369C3.17553 33.9369 3.2036 33.9287 3.25714 33.9142L3.33346 33.8938C3.80389 33.7702 5.27499 33.4188 7.0646 33.3373V10.4469H5.18824V9.57014H7.10254C7.63189 5.15127 10.6425 2.79294 11.5684 2.16513L11.6595 2.10447C11.7421 2.0504 11.7989 2.01606 11.8243 2.00105V0H12.709ZM3.55963 34.4835L1.09481 37.8647C1.09481 37.8647 6.42497 36.291 11.7036 37.9218L11.8846 37.9791C12.0121 38.0202 12.1394 38.0633 12.2666 38.1084C12.3939 38.0633 12.5213 38.0202 12.6485 37.9791L12.8261 37.9144C18.1081 36.291 23.4384 37.8647 23.4384 37.8647L20.9737 34.4835C17.3603 33.1908 12.7087 34.5333 12.7087 34.5333L12.3065 34.6649L12.2528 34.6825L11.8243 34.5333C11.8243 34.5333 7.17295 33.1908 3.55963 34.4835ZM11.6652 35.0171C11.7602 35.0155 11.8312 35.0321 11.8789 35.0668C11.9686 35.1318 12.0415 35.2555 12.0978 35.4383C12.1673 35.6703 12.2129 35.9138 12.2348 36.1687L12.3586 35.7244C12.442 35.5119 12.5519 35.2792 12.6882 35.026L13.1126 35.0188C13.0871 35.0853 12.97 35.281 12.7606 35.6061C12.6763 35.738 12.6154 35.8374 12.5782 35.9044C12.5591 35.9385 12.5386 35.9728 12.517 36.0081L12.2797 36.3912C12.2883 36.4509 12.2943 36.5115 12.2981 36.5724C12.3019 36.6337 12.3037 36.6841 12.3037 36.7238C12.3026 36.8685 12.2867 36.9818 12.2572 37.0636C12.2349 37.1251 12.2043 37.1686 12.165 37.1947C12.1261 37.2203 12.0826 37.2338 12.0349 37.2346C11.9766 37.2355 11.9261 37.2183 11.8836 37.183C11.8408 37.1479 11.82 37.1029 11.8204 37.0482C11.8214 36.9641 11.8437 36.8682 11.8872 36.7608C11.9311 36.6532 11.995 36.535 12.0793 36.4059C11.9846 35.8786 11.9097 35.564 11.855 35.4613C11.8003 35.3584 11.7298 35.3078 11.6434 35.3093C11.591 35.3103 11.5496 35.323 11.5195 35.3478C11.4894 35.3723 11.4631 35.4437 11.4406 35.562L11.2776 35.5648C11.2778 35.5515 11.2779 35.5394 11.2779 35.5284L11.2784 35.4767L11.2785 35.4614C11.28 35.3108 11.3214 35.1949 11.4025 35.1147C11.4676 35.0515 11.5551 35.019 11.6652 35.0171ZM17.509 34.9716C17.8669 34.8347 18.0374 34.8582 18.3055 34.8865C18.5128 34.9081 18.7713 34.978 18.8178 35.1498C18.8648 35.3222 18.6675 35.4516 18.6005 35.3569C18.4355 35.124 18.3532 35.0669 18.0676 35.0439C17.9131 35.0375 17.7059 35.0728 17.5584 35.1469C17.4543 35.2052 17.1613 35.389 17.1887 35.7627C17.2237 35.9419 17.6121 36.0223 17.8062 36.0337C18.4677 36.0727 18.6297 36.2944 18.6317 36.4571C18.6381 36.6284 18.4286 37.0093 18.0187 36.9788C18.0187 36.9788 17.5515 37.0335 17.6487 36.7771C17.6877 36.6745 17.7898 36.6517 17.8855 36.7537C18.0509 36.93 18.2553 36.7549 18.3015 36.7075C18.45 36.556 18.3847 36.3545 18.1879 36.3171C18.0776 36.2962 17.6676 36.2948 17.4712 36.2852C17.0979 36.2674 16.8061 36.1594 16.8012 35.8297C16.7983 35.3064 17.2883 35.0562 17.509 34.9716ZM5.98103 34.3479C6.08654 34.3463 6.17609 34.3757 6.24978 34.4367C6.35377 34.5244 6.43708 34.6768 6.49941 34.8936L6.81999 35.9973C6.86678 36.1573 6.91938 36.2593 6.97776 36.3035C7.03046 36.3455 7.09279 36.3656 7.1644 36.3646C7.23176 36.3636 7.28785 36.3454 7.33235 36.31C7.37696 36.2747 7.40528 36.2061 7.4172 36.1044L7.58295 36.1017C7.58252 36.1485 7.58219 36.1786 7.58208 36.1923C7.58055 36.3368 7.53124 36.4548 7.43371 36.5461C7.35684 36.6178 7.25712 36.6549 7.13434 36.6571C7.02489 36.6587 6.92911 36.6268 6.84688 36.5609C6.76444 36.4951 6.69064 36.3491 6.62503 36.1236L6.47535 35.5406L5.80685 36.6468L5.36731 36.6541L6.33091 35.1178L6.29964 35.0039C6.2593 34.8543 6.20791 34.7561 6.14558 34.7091C6.08326 34.6621 6.01558 34.6393 5.94254 34.6405C5.87705 34.6416 5.81888 34.6609 5.76804 34.6986C5.71709 34.7362 5.68111 34.8081 5.66001 34.9143L5.50584 34.9168C5.51218 34.7254 5.56959 34.5769 5.67838 34.4713C5.76016 34.3912 5.86098 34.35 5.98103 34.3479ZM9.48328 35.0379C9.65101 35.035 9.81502 35.0673 9.97574 35.1341C10.1363 35.2011 10.2584 35.2957 10.342 35.4175C10.4257 35.5393 10.4667 35.6623 10.4656 35.7867C10.4642 35.925 10.4173 36.0598 10.3252 36.1918C10.2331 36.3234 10.1059 36.4291 9.9436 36.5088C9.78112 36.5885 9.60093 36.63 9.40303 36.6332C9.1252 36.6381 8.89034 36.5687 8.69867 36.4252C8.50689 36.282 8.4122 36.1059 8.41417 35.897C8.4157 35.7559 8.46523 35.617 8.56298 35.4805C8.66062 35.3442 8.79478 35.2369 8.96556 35.1592C9.13635 35.0814 9.30889 35.041 9.48328 35.0379ZM14.8944 34.9442C15.0622 34.9415 15.2264 34.9735 15.387 35.0407C15.5474 35.1074 15.6696 35.202 15.7532 35.3238C15.8367 35.4457 15.8779 35.5688 15.8768 35.6929C15.8753 35.8314 15.8288 35.9664 15.7364 36.098C15.6443 36.2297 15.517 36.3354 15.3549 36.4151C15.1923 36.4949 15.0121 36.5363 14.8142 36.5397C14.5363 36.5443 14.3014 36.4749 14.11 36.3317C13.9181 36.1883 13.8233 36.0122 13.8255 35.8035C13.8268 35.6622 13.8763 35.5236 13.9743 35.387C14.0718 35.2505 14.206 35.1433 14.3767 35.0654C14.5475 34.9877 14.72 34.9473 14.8944 34.9442ZM9.39854 35.21C9.26373 35.2121 9.14466 35.2597 9.0409 35.3526C8.93724 35.4452 8.88454 35.5807 8.88279 35.7594C8.88072 35.964 8.93725 36.1329 9.05271 36.2659C9.16795 36.3992 9.31567 36.4643 9.49586 36.461C9.62783 36.4589 9.74406 36.4113 9.8441 36.3182C9.94437 36.2251 9.99543 36.0863 9.99729 35.9023C9.99969 35.6536 9.9237 35.4666 9.76942 35.341C9.65855 35.2513 9.53511 35.2076 9.39854 35.21ZM14.8097 35.1163C14.6749 35.1185 14.5558 35.166 14.4522 35.2589C14.3484 35.3515 14.2957 35.4872 14.294 35.6657C14.2919 35.8703 14.3484 36.0392 14.4639 36.1723C14.5791 36.3055 14.727 36.3706 14.907 36.3674C15.039 36.3652 15.1552 36.3175 15.2553 36.2246C15.3555 36.1315 15.4066 35.9927 15.4085 35.8087C15.4111 35.5602 15.3351 35.373 15.1806 35.2473C15.0696 35.1577 14.9462 35.1139 14.8097 35.1163ZM10.9373 28.2523C10.8814 28.6067 10.8268 28.9541 10.7757 29.2806C11.0301 29.5715 11.298 29.7322 11.298 29.7322L11.2064 30.0654H10.6526C10.5362 30.8071 10.4575 31.3128 10.4575 31.3128H9.60279V33.4356C10.3546 33.5368 11.1083 33.7129 11.8243 33.9918V28.2802H10.9373V28.2523ZM13.6 28.2802H12.709V33.9911C13.4264 33.7118 14.1812 33.5357 14.9345 33.4345V31.3128H14.0755C14.0755 31.3128 13.9967 30.8071 13.8803 30.0654H13.3475L13.2559 29.7322C13.2559 29.7322 13.5113 29.5792 13.7605 29.3009C13.7097 28.9772 13.6555 28.6323 13.6 28.2802ZM9.10322 10.4469H8.7131V33.3487C8.84267 33.3568 8.97278 33.367 9.10322 33.3792V10.4469ZM15.8241 10.4469H15.4338V33.3783C15.5644 33.3663 15.6944 33.3561 15.8241 33.3481V10.4469ZM8.15121 10.4469H7.75136V33.3204C7.88355 33.32 8.01694 33.3215 8.15121 33.3246V10.4469ZM16.7857 10.4469H16.3858V33.324C16.5202 33.321 16.6535 33.3196 16.7857 33.32V10.4469ZM10.2682 30.0654H9.60279V30.9794H10.1209C10.1209 30.9794 10.1788 30.6207 10.2682 30.0654ZM14.9345 30.0654H14.2649C14.3541 30.6207 14.4121 30.9794 14.4121 30.9794H14.9345V30.0654ZM10.2343 10.4469H9.60279V29.7044H10.3263C10.3371 29.6366 10.3485 29.5665 10.36 29.4951C10.132 29.1485 9.74668 28.4258 9.96886 27.76C10.1465 27.2275 10.4497 26.8905 10.8133 26.6799C11.0277 25.3492 11.2164 24.1786 11.2472 23.9898C11.3196 23.5442 11.4656 22.9673 11.8243 22.7216V12.0224C11.0305 11.852 10.4062 11.2334 10.2343 10.4469ZM14.9345 10.4469H14.299C14.1269 11.2334 13.5027 11.852 12.709 12.0224V22.7217C13.0674 22.9676 13.2133 23.5443 13.2858 23.9898C13.3164 24.1779 13.504 25.3417 13.7175 26.6672C14.0914 26.8766 14.4035 27.2163 14.585 27.76C14.8127 28.4419 14.4022 29.1847 14.1771 29.5207C14.1873 29.5834 14.1971 29.6447 14.2067 29.7044H14.9345V10.4469ZM13.8048 27.2085C13.8944 27.7658 13.9856 28.332 14.0692 28.8505C14.1993 28.5865 14.2716 28.2698 14.2015 27.9085C14.1454 27.6204 13.9982 27.3893 13.8048 27.2085ZM10.7242 27.2342C10.5434 27.4112 10.4058 27.6334 10.3524 27.9085C10.285 28.2549 10.3487 28.5607 10.469 28.8181C10.5498 28.3164 10.6376 27.7717 10.7242 27.2342ZM11.8243 26.7105C11.6053 26.7461 11.3671 26.8176 11.1459 26.9321C11.0933 27.2634 11.0394 27.6046 10.986 27.9435H11.8243V26.7105ZM12.709 26.7071V27.9435H13.5469C13.4928 27.6008 13.4383 27.2559 13.3853 26.9211C13.1635 26.8097 12.9263 26.7401 12.709 26.7071ZM11.8243 23.2954C11.6898 23.5202 11.6556 23.8639 11.5836 24.2396C11.541 24.4622 11.3912 25.3893 11.2141 26.5021C11.4106 26.4385 11.6166 26.4009 11.8243 26.3804V23.2954ZM12.709 23.296V26.3785C12.916 26.3976 13.1213 26.4333 13.3176 26.4947C13.141 25.3851 12.9919 24.4618 12.9494 24.2396C12.8774 23.8642 12.8433 23.5207 12.709 23.296ZM11.8243 10.4469H10.7947C10.9427 10.9355 11.3311 11.3205 11.8243 11.4672V10.4469ZM13.7385 10.4469H12.709V11.4672C13.202 11.3205 13.5906 10.9355 13.7385 10.4469ZM11.8243 2.99741C9.03674 4.36073 8.10233 8.12176 7.84036 9.57014H8.22906C9.10147 5.57226 11.3877 4.51458 11.8243 4.34697V2.99741ZM12.709 2.99546V4.34545C13.135 4.50797 15.4328 5.55937 16.308 9.57014H16.6967C16.4347 8.12111 15.4995 4.35715 12.709 2.99546ZM11.8243 4.99683C9.95344 5.69978 9.0772 8.50737 8.80801 9.57014H9.22262C9.60345 7.7497 11.4056 6.52452 11.8243 6.26178V4.99683ZM12.709 4.99521V6.25928C13.1201 6.51682 14.9324 7.74406 15.3145 9.57014H15.7292C15.4597 8.50661 14.5825 5.69567 12.709 4.99521ZM11.8243 6.97675C10.5335 7.71384 9.98537 8.84627 9.75805 9.57014H10.2343C10.4062 8.78365 11.0305 8.1651 11.8243 7.99456V6.97675ZM12.709 6.97448V7.99456C13.5027 8.1651 14.1269 8.78365 14.299 9.57014H14.7792C14.5517 8.84551 14.0025 7.71145 12.709 6.97448ZM11.8243 8.54995C11.3311 8.69665 10.9427 9.0816 10.7947 9.57014H11.8243V8.54995ZM12.709 8.54995V9.57014H13.7385C13.5907 9.0816 13.202 8.69654 12.709 8.54995Z" fill="#2A4385"/>
<g id="Union">
<path fill-rule="evenodd" clip-rule="evenodd" d="M130.141 11.07C129.147 11.07 128.311 10.7367 127.631 10.07C126.951 9.39667 126.611 8.55 126.611 7.53C126.611 6.50333 126.951 5.66 127.631 5C128.311 4.33333 129.147 4 130.141 4C131.134 4 131.967 4.33333 132.641 5C133.321 5.66 133.661 6.50333 133.661 7.53C133.661 8.55667 133.321 9.40333 132.641 10.07C131.967 10.7367 131.134 11.07 130.141 11.07ZM132.001 9.51C132.487 9.01 132.731 8.35 132.731 7.53C132.731 6.71 132.487 6.05333 132.001 5.56C131.514 5.06 130.891 4.81 130.131 4.81C129.377 4.81 128.754 5.06 128.261 5.56C127.774 6.05333 127.531 6.71 127.531 7.53C127.531 8.35 127.777 9.01 128.271 9.51C128.764 10.01 129.387 10.26 130.141 10.26C130.894 10.26 131.514 10.01 132.001 9.51Z" fill="#2A4385"/>
<path fill-rule="evenodd" clip-rule="evenodd" d="M163.978 4.07C165.098 4.07 165.981 4.38333 166.628 5.01C167.274 5.63667 167.598 6.49 167.598 7.57C167.598 8.65 167.274 9.49333 166.628 10.1C165.981 10.7 165.098 11 163.978 11H161.788V4.07H163.978ZM162.698 10.3H163.978C164.851 10.3 165.518 10.06 165.978 9.58C166.438 9.1 166.668 8.43 166.668 7.57C166.668 6.71 166.438 6.04 165.978 5.56C165.518 5.08 164.851 4.84 163.978 4.84H162.698V10.3Z" fill="#2A4385"/>
<path fill-rule="evenodd" clip-rule="evenodd" d="M191.435 23.07C190.442 23.07 189.605 22.7367 188.925 22.07C188.245 21.3967 187.905 20.55 187.905 19.53C187.905 18.5033 188.245 17.66 188.925 17C189.605 16.3333 190.442 16 191.435 16C192.428 16 193.262 16.3333 193.935 17C194.615 17.66 194.955 18.5033 194.955 19.53C194.955 20.5567 194.615 21.4033 193.935 22.07C193.262 22.7367 192.428 23.07 191.435 23.07ZM193.295 21.51C193.782 21.01 194.025 20.35 194.025 19.53C194.025 18.71 193.782 18.0533 193.295 17.56C192.808 17.06 192.185 16.81 191.425 16.81C190.672 16.81 190.048 17.06 189.555 17.56C189.068 18.0533 188.825 18.71 188.825 19.53C188.825 20.35 189.072 21.01 189.565 21.51C190.058 22.01 190.682 22.26 191.435 22.26C192.188 22.26 192.808 22.01 193.295 21.51Z" fill="#2A4385"/>
<path d="M203.367 16.07H202.457V21.57L198.797 16.07H197.887V23H198.797V17.5L202.457 23H203.367V16.07Z" fill="#2A4385"/>
<path d="M35.4614 34.9V33.87C35.6347 33.7167 35.9014 33.4867 36.2614 33.18C36.6214 32.8667 36.8914 32.63 37.0714 32.47C37.2514 32.31 37.4714 32.1 37.7314 31.84C37.9981 31.5733 38.1947 31.35 38.3214 31.17C38.6481 30.7033 38.8114 30.29 38.8114 29.93C38.8114 29.2233 38.4847 28.87 37.8314 28.87C37.5114 28.87 37.2614 28.9767 37.0814 29.19C36.9014 29.4033 36.8081 29.6967 36.8014 30.07H35.4414C35.4481 29.29 35.6747 28.6967 36.1214 28.29C36.5747 27.8833 37.1647 27.68 37.8914 27.68C38.6181 27.68 39.1881 27.8867 39.6014 28.3C40.0147 28.7133 40.2214 29.2333 40.2214 29.86C40.2214 30.3267 40.1014 30.76 39.8614 31.16C39.7414 31.3733 39.6247 31.5633 39.5114 31.73C39.3981 31.89 39.2347 32.0767 39.0214 32.29C38.8147 32.5033 38.6514 32.67 38.5314 32.79C38.4114 32.91 38.2281 33.08 37.9814 33.3C37.7414 33.5133 37.5747 33.6633 37.4814 33.75H40.3914V34.9H35.4614Z" fill="#2A4385"/>
<path d="M51.2684 34.9V33.87C51.4418 33.7167 51.7084 33.4867 52.0684 33.18C52.4284 32.8667 52.6984 32.63 52.8784 32.47C53.0584 32.31 53.2784 32.1 53.5384 31.84C53.8051 31.5733 54.0018 31.35 54.1284 31.17C54.4551 30.7033 54.6184 30.29 54.6184 29.93C54.6184 29.2233 54.2918 28.87 53.6384 28.87C53.3184 28.87 53.0684 28.9767 52.8884 29.19C52.7084 29.4033 52.6151 29.6967 52.6084 30.07H51.2484C51.2551 29.29 51.4818 28.6967 51.9284 28.29C52.3818 27.8833 52.9718 27.68 53.6984 27.68C54.4251 27.68 54.9951 27.8867 55.4084 28.3C55.8218 28.7133 56.0284 29.2333 56.0284 29.86C56.0284 30.3267 55.9084 30.76 55.6684 31.16C55.5484 31.3733 55.4318 31.5633 55.3184 31.73C55.2051 31.89 55.0418 32.0767 54.8284 32.29C54.6218 32.5033 54.4584 32.67 54.3384 32.79C54.2184 32.91 54.0351 33.08 53.7884 33.3C53.5484 33.5133 53.3818 33.6633 53.2884 33.75H56.1984V34.9H51.2684Z" fill="#2A4385"/>
<path fill-rule="evenodd" clip-rule="evenodd" d="M62.3206 35V33.58H58.8306V32.48L62.0906 27.8H63.7206V32.36H64.6006V33.58H63.7206V35H62.3206ZM62.4106 32.36V29.32L60.4106 32.36H62.4106Z" fill="#2A4385"/>
<path fill-rule="evenodd" clip-rule="evenodd" d="M45.7636 27.73C43.9703 27.73 43.0736 28.94 43.0736 31.36C43.0736 33.7733 43.9703 34.98 45.7636 34.98C47.5636 34.98 48.4636 33.7733 48.4636 31.36C48.4636 28.94 47.5636 27.73 45.7636 27.73ZM45.7736 29.03C46.0003 29.03 46.1969 29.0733 46.3636 29.16C46.5303 29.2467 46.6569 29.3567 46.7436 29.49C46.8369 29.6233 46.9103 29.8 46.9636 30.02C47.0169 30.2333 47.0503 30.44 47.0636 30.64C47.0836 30.84 47.0936 31.0767 47.0936 31.35C47.0936 31.6233 47.0836 31.86 47.0636 32.06C47.0503 32.26 47.0169 32.47 46.9636 32.69C46.9103 32.9033 46.8369 33.08 46.7436 33.22C46.6569 33.3533 46.5303 33.4633 46.3636 33.55C46.1969 33.6367 46.0003 33.68 45.7736 33.68C45.5469 33.68 45.3503 33.6367 45.1836 33.55C45.0169 33.4633 44.8869 33.3533 44.7936 33.22C44.7069 33.08 44.6369 32.9033 44.5836 32.69C44.5303 32.47 44.4936 32.26 44.4736 32.06C44.4603 31.86 44.4536 31.6233 44.4536 31.35C44.4536 31.0767 44.4603 30.84 44.4736 30.64C44.4936 30.44 44.5303 30.2333 44.5836 30.02C44.6369 29.8 44.7069 29.6233 44.7936 29.49C44.8869 29.3567 45.0169 29.2467 45.1836 29.16C45.3503 29.0733 45.5469 29.03 45.7736 29.03Z" fill="#2A4385"/>
<path d="M184.053 16.07V23H184.963V16.07H184.053Z" fill="#2A4385"/>
<path d="M176.484 16.8V16.07H181.054V16.8H179.224V23H178.314V16.8H176.484Z" fill="#2A4385"/>
<path d="M173.492 16.07H172.582V21.57L168.922 16.07H168.012V23H168.922V17.5L172.582 23H173.492V16.07Z" fill="#2A4385"/>
<path d="M164.833 16.07V16.79H162.073V19.15H164.533V19.86H162.073V22.28H164.833V23H161.163V16.07H164.833Z" fill="#2A4385"/>
<path d="M152.056 16.07L154.726 23H155.706L158.376 16.07H157.406L155.206 22.03L153.026 16.07H152.056Z" fill="#2A4385"/>
<path d="M148.353 16.07H149.263V23H148.353L144.693 17.5V23H143.783V16.07H144.693L148.353 21.57V16.07Z" fill="#2A4385"/>
<path fill-rule="evenodd" clip-rule="evenodd" d="M134.821 22.07C135.501 22.7367 136.338 23.07 137.331 23.07C138.325 23.07 139.158 22.7367 139.831 22.07C140.511 21.4033 140.851 20.5567 140.851 19.53C140.851 18.5033 140.511 17.66 139.831 17C139.158 16.3333 138.325 16 137.331 16C136.338 16 135.501 16.3333 134.821 17C134.141 17.66 133.801 18.5033 133.801 19.53C133.801 20.55 134.141 21.3967 134.821 22.07ZM139.921 19.53C139.921 20.35 139.678 21.01 139.191 21.51C138.705 22.01 138.085 22.26 137.331 22.26C136.578 22.26 135.955 22.01 135.461 21.51C134.968 21.01 134.721 20.35 134.721 19.53C134.721 18.71 134.965 18.0533 135.451 17.56C135.945 17.06 136.568 16.81 137.321 16.81C138.081 16.81 138.705 17.06 139.191 17.56C139.678 18.0533 139.921 18.71 139.921 19.53Z" fill="#2A4385"/>
<path d="M127.758 23.06C126.764 23.06 125.928 22.7267 125.248 22.06C124.568 21.3933 124.228 20.55 124.228 19.53C124.228 18.5033 124.568 17.66 125.248 17C125.928 16.3333 126.764 16 127.758 16C128.478 16 129.118 16.17 129.678 16.51C130.244 16.85 130.661 17.34 130.928 17.98H129.828C129.414 17.2 128.724 16.81 127.758 16.81C127.004 16.81 126.381 17.06 125.888 17.56C125.401 18.0533 125.158 18.71 125.158 19.53C125.158 20.35 125.401 21.01 125.888 21.51C126.381 22.01 127.004 22.26 127.758 22.26C128.218 22.26 128.628 22.16 128.988 21.96C129.348 21.7533 129.628 21.46 129.828 21.08H130.928C130.661 21.72 130.244 22.21 129.678 22.55C129.118 22.89 128.478 23.06 127.758 23.06Z" fill="#2A4385"/>
<path d="M114.613 16.07H113.703V23H117.043V22.3H114.613V16.07Z" fill="#2A4385"/>
<path fill-rule="evenodd" clip-rule="evenodd" d="M109.769 23L109.229 21.48H106.149L105.609 23H104.679L107.199 16.07H108.199L110.709 23H109.769ZM106.409 20.76H108.969L107.689 17.18L106.409 20.76Z" fill="#2A4385"/>
<path d="M96.0751 22.06C96.7551 22.7267 97.5918 23.06 98.5851 23.06C99.3051 23.06 99.9451 22.89 100.505 22.55C101.072 22.21 101.488 21.72 101.755 21.08H100.655C100.455 21.46 100.175 21.7533 99.8151 21.96C99.4551 22.16 99.0451 22.26 98.5851 22.26C97.8317 22.26 97.2084 22.01 96.7151 21.51C96.2284 21.01 95.9851 20.35 95.9851 19.53C95.9851 18.71 96.2284 18.0533 96.7151 17.56C97.2084 17.06 97.8317 16.81 98.5851 16.81C99.5518 16.81 100.242 17.2 100.655 17.98H101.755C101.488 17.34 101.072 16.85 100.505 16.51C99.9451 16.17 99.3051 16 98.5851 16C97.5918 16 96.7551 16.3333 96.0751 17C95.3951 17.66 95.0551 18.5033 95.0551 19.53C95.0551 20.55 95.3951 21.3933 96.0751 22.06Z" fill="#2A4385"/>
<path d="M91.203 23V16.07H92.113V23H91.203Z" fill="#2A4385"/>
<path d="M86.0259 16.07H85.1159V23H88.4559V22.3H86.0259V16.07Z" fill="#2A4385"/>
<path d="M81.937 16.07V16.79H79.177V19.15H81.637V19.86H79.177V22.28H81.937V23H78.267V16.07H81.937Z" fill="#2A4385"/>
<path d="M69.3536 22.06C70.0336 22.7267 70.8503 23.06 71.8036 23.06C72.7636 23.06 73.5669 22.7667 74.2136 22.18C74.8603 21.5933 75.2303 20.8533 75.3236 19.96V19.24H71.5036V19.96H74.3636C74.2903 20.6667 74.0303 21.2267 73.5836 21.64C73.1436 22.0533 72.5569 22.26 71.8236 22.26C71.0969 22.26 70.4869 22.01 69.9936 21.51C69.5069 21.01 69.2636 20.35 69.2636 19.53C69.2636 18.71 69.5069 18.0533 69.9936 17.56C70.4869 17.06 71.1103 16.81 71.8636 16.81C72.8303 16.81 73.5203 17.2 73.9336 17.98H75.0336C74.7669 17.34 74.3503 16.85 73.7836 16.51C73.2236 16.17 72.5836 16 71.8636 16C70.8703 16 70.0336 16.3333 69.3536 17C68.6736 17.66 68.3336 18.5033 68.3336 19.53C68.3336 20.55 68.6736 21.3933 69.3536 22.06Z" fill="#2A4385"/>
<path d="M64.4812 16.07H65.3912V23H64.4812L60.8212 17.5V23H59.9112V16.07H60.8212L64.4812 21.57V16.07Z" fill="#2A4385"/>
<path fill-rule="evenodd" clip-rule="evenodd" d="M55.4371 21.48L55.9771 23H56.9171L54.4071 16.07H53.4071L50.8871 23H51.8171L52.3571 21.48H55.4371ZM55.1771 20.76H52.6171L53.8971 17.18L55.1771 20.76Z" fill="#2A4385"/>
<path d="M44.7602 23L42.0902 16.07H43.0602L45.2402 22.03L47.4402 16.07H48.4102L45.7402 23H44.7602Z" fill="#2A4385"/>
<path d="M39.4214 16.79V16.07H35.7514V23H39.4214V22.28H36.6614V19.86H39.1214V19.15H36.6614V16.79H39.4214Z" fill="#2A4385"/>
<path d="M158.609 4.79V4.07H154.939V11H158.609V10.28H155.849V7.86H158.309V7.15H155.849V4.79H158.609Z" fill="#2A4385"/>
<path d="M151.635 4.07V11H150.715V5.95L148.395 11H147.805L145.475 5.95V11H144.565V4.07H145.495L148.105 9.75L150.705 4.07H151.635Z" fill="#2A4385"/>
<path fill-rule="evenodd" clip-rule="evenodd" d="M137.503 11V8.14H138.393L140.213 11H141.353L139.443 8.1C140.043 8.00667 140.493 7.77667 140.793 7.41C141.093 7.04333 141.243 6.58667 141.243 6.04C141.243 5.48667 141.036 5.02 140.623 4.64C140.216 4.26 139.623 4.07 138.843 4.07H136.593V11H137.503ZM137.503 7.42V4.8H138.843C139.829 4.8 140.323 5.23667 140.323 6.11C140.323 6.52333 140.199 6.84667 139.953 7.08C139.713 7.30667 139.343 7.42 138.843 7.42H137.503Z" fill="#2A4385"/>
<path d="M120.268 4.07V11H121.178V7.87H123.538V7.15H121.178V4.8H124.168V4.07H120.268Z" fill="#2A4385"/>
<path d="M117.089 4.07V4.79H114.329V7.15H116.789V7.86H114.329V10.28H117.089V11H113.419V4.07H117.089Z" fill="#2A4385"/>
<path fill-rule="evenodd" clip-rule="evenodd" d="M106.357 11V8.14H107.247L109.067 11H110.207L108.297 8.1C108.897 8.00667 109.347 7.77667 109.647 7.41C109.947 7.04333 110.097 6.58667 110.097 6.04C110.097 5.48667 109.891 5.02 109.477 4.64C109.071 4.26 108.477 4.07 107.697 4.07H105.447V11H106.357ZM106.357 7.42V4.8H107.697C108.684 4.8 109.177 5.23667 109.177 6.11C109.177 6.52333 109.054 6.84667 108.807 7.08C108.567 7.30667 108.197 7.42 107.697 7.42H106.357Z" fill="#2A4385"/>
<path d="M96.437 4.07H97.347V11H96.437L92.777 5.5V11H91.867V4.07H92.777L96.437 9.57V4.07Z" fill="#2A4385"/>
<path fill-rule="evenodd" clip-rule="evenodd" d="M87.393 9.48L87.933 11H88.873L86.363 4.07H85.363L82.843 11H83.773L84.313 9.48H87.393ZM87.133 8.76H84.573L85.853 5.18L87.133 8.76Z" fill="#2A4385"/>
<path d="M79.9741 4.07V4.79H77.2141V7.15H79.6741V7.86H77.2141V10.28H79.9741V11H76.3041V4.07H79.9741Z" fill="#2A4385"/>
<path fill-rule="evenodd" clip-rule="evenodd" d="M72.7529 4.64C72.3462 4.26 71.7529 4.07 70.9729 4.07H68.7229V11H69.6329V8.14H70.9729C71.7796 8.14 72.3796 7.95 72.7729 7.57C73.1729 7.18333 73.3729 6.69333 73.3729 6.1C73.3729 5.50667 73.1662 5.02 72.7529 4.64ZM70.9729 7.42H69.6329V4.8H70.9729C71.9596 4.8 72.4529 5.23667 72.4529 6.11C72.4529 6.52333 72.3296 6.84667 72.0829 7.08C71.8429 7.30667 71.4729 7.42 70.9729 7.42Z" fill="#2A4385"/>
<path fill-rule="evenodd" clip-rule="evenodd" d="M62.2706 11.07C61.2773 11.07 60.4406 10.7367 59.7606 10.07C59.0806 9.39667 58.7406 8.55 58.7406 7.53C58.7406 6.50333 59.0806 5.66 59.7606 5C60.4406 4.33333 61.2773 4 62.2706 4C63.264 4 64.0973 4.33333 64.7706 5C65.4506 5.66 65.7906 6.50333 65.7906 7.53C65.7906 8.55667 65.4506 9.40333 64.7706 10.07C64.0973 10.7367 63.264 11.07 62.2706 11.07ZM64.1306 9.51C64.6173 9.01 64.8606 8.35 64.8606 7.53C64.8606 6.71 64.6173 6.05333 64.1306 5.56C63.644 5.06 63.0206 4.81 62.2606 4.81C61.5073 4.81 60.884 5.06 60.3906 5.56C59.904 6.05333 59.6606 6.71 59.6606 7.53C59.6606 8.35 59.9073 9.01 60.4006 9.51C60.894 10.01 61.5173 10.26 62.2706 10.26C63.024 10.26 63.644 10.01 64.1306 9.51Z" fill="#2A4385"/>
<path fill-rule="evenodd" clip-rule="evenodd" d="M52.0387 11V8.14H52.9288L54.7488 11H55.8888L53.9788 8.1C54.5788 8.00667 55.0288 7.77667 55.3288 7.41C55.6287 7.04333 55.7787 6.58667 55.7787 6.04C55.7787 5.48667 55.5721 5.02 55.1588 4.64C54.7521 4.26 54.1588 4.07 53.3787 4.07H51.1287V11H52.0387ZM52.0387 7.42V4.8H53.3787C54.3654 4.8 54.8587 5.23667 54.8587 6.11C54.8587 6.52333 54.7354 6.84667 54.4888 7.08C54.2488 7.30667 53.8787 7.42 53.3787 7.42H52.0387Z" fill="#2A4385"/>
<path d="M42.5902 8.57V4.07H43.5102V8.57C43.5102 9.14333 43.6602 9.57333 43.9602 9.86C44.2669 10.14 44.6869 10.28 45.2202 10.28C45.7536 10.28 46.1736 10.14 46.4802 9.86C46.7869 9.57333 46.9402 9.14333 46.9402 8.57V4.07H47.8502V8.57C47.8502 9.38333 47.6002 10.0033 47.1002 10.43C46.6069 10.8567 45.9769 11.07 45.2102 11.07C44.4502 11.07 43.8236 10.8567 43.3302 10.43C42.8369 10.0033 42.5902 9.38333 42.5902 8.57Z" fill="#2A4385"/>
<path d="M39.4214 4.79V4.07H35.7514V11H39.4214V10.28H36.6614V7.86H39.1214V7.15H36.6614V4.79H39.4214Z" fill="#2A4385"/>
</g>
</g>
</svg>
