<svg width="50" height="80" viewBox="0 0 50 80" fill="none" xmlns="http://www.w3.org/2000/svg">
<path id="Logo" fill-rule="evenodd" clip-rule="evenodd" d="M11.8263 77.1212C20.0385 77.1212 24.5385 79.0665 24.5385 79.0665C24.6394 79.027 24.7797 78.9751 24.9588 78.9138L25.1921 78.8359C26.8704 78.2891 30.9998 77.2207 37.1459 77.2207C45.3583 77.2207 48.9722 78.6121 48.9722 78.6121L48.2059 79.6724C48.2059 79.6724 46.015 78.3139 36.3781 78.4134C29.8709 78.4803 27.0594 79.231 25.189 79.7885C24.9835 79.8795 24.7615 79.9712 24.6417 80L23.257 79.5729C21.1321 79.0775 18.7048 78.377 12.5945 78.3139C4.01146 78.2253 1.33464 79.2932 0.85176 79.5278L0.808872 79.5494C0.779619 79.5646 0.766245 79.5729 0.766245 79.5729L0 78.5126C0 78.5126 3.6143 77.1212 11.8263 77.1212ZM25.418 0V3.99755C25.9083 4.28619 33.6547 9.00251 34.869 19.1403H38.6902V20.8938H34.9451V66.6743C38.5211 66.8382 41.4601 67.5407 42.3999 67.7876L42.5523 67.8284C42.6593 67.8574 42.7154 67.8739 42.7154 67.8739L45.2781 71.7256L45.9129 72.6797L46.2451 73.1785L46.8801 74.1328L49.0667 77.4194C49.0667 77.4194 42.9325 75.7294 36.5815 75.7294C31.5569 75.7294 27.067 76.9238 25.301 77.4608L24.561 77.7176L23.7659 77.461C22.0001 76.9238 17.51 75.7294 12.4847 75.7294C6.13369 75.7294 0 77.4194 0 77.4194L2.18656 74.1328L2.82138 73.1785L3.15836 72.6728L3.78881 71.7256L6.35105 67.8739C6.35105 67.8739 6.4072 67.8574 6.51429 67.8283L6.66691 67.7876C7.60778 67.5405 10.55 66.8375 14.1292 66.6747V20.8938H10.3765V19.1403H14.2051C15.2638 10.3025 21.285 5.58588 23.1369 4.33026L23.3189 4.20894C23.4842 4.1008 23.5979 4.03213 23.6487 4.0021V0H25.418ZM7.11927 68.9671L2.18962 75.7294C2.18962 75.7294 12.8499 72.582 23.4072 75.8436L23.7692 75.9582C24.0241 76.0404 24.2789 76.1266 24.5332 76.2168C24.7878 76.1266 25.0425 76.0404 25.2971 75.9582L25.6522 75.8289C36.2163 72.5819 46.8768 75.7294 46.8768 75.7294L41.9474 68.9671C34.7205 66.3815 25.4173 69.0666 25.4173 69.0666L24.613 69.3298L24.5057 69.3649L23.6487 69.0666C23.6487 69.0666 14.3459 66.3815 7.11927 68.9671ZM23.3305 70.0343C23.5203 70.031 23.6624 70.0642 23.7578 70.1335C23.9371 70.2636 24.083 70.511 24.1956 70.8766C24.3347 71.3405 24.4259 71.8276 24.4696 72.3373L24.7171 71.4489C24.884 71.0237 25.1038 70.5585 25.3764 70.0521L26.2251 70.0375C26.1742 70.1706 25.94 70.5619 25.5212 71.2122C25.3526 71.476 25.2308 71.6749 25.1565 71.8088C25.1182 71.8771 25.0773 71.9455 25.034 72.0162L24.5595 72.7824C24.5765 72.9018 24.5885 73.0229 24.5962 73.1447C24.6039 73.2674 24.6074 73.3681 24.6074 73.4476C24.6052 73.7369 24.5735 73.9636 24.5144 74.1272C24.4698 74.2503 24.4086 74.3372 24.3301 74.3894C24.2522 74.4405 24.1652 74.4676 24.0698 74.4691C23.9533 74.4711 23.8523 74.4366 23.7672 74.366C23.6817 74.2958 23.6399 74.2059 23.6408 74.0964C23.6428 73.9283 23.6874 73.7365 23.7744 73.5215C23.8621 73.3064 23.99 73.07 24.1586 72.8119C23.9693 71.7572 23.8195 71.1279 23.7099 70.9225C23.6006 70.7169 23.4595 70.6157 23.2868 70.6185C23.182 70.6207 23.0991 70.646 23.039 70.6956C22.9789 70.7446 22.9262 70.8874 22.8811 71.124L22.5553 71.1297C22.5555 71.103 22.5557 71.0787 22.5559 71.0568L22.5568 70.9533L22.557 70.9227C22.5601 70.6215 22.6428 70.3899 22.805 70.2293C22.9351 70.103 23.1103 70.038 23.3305 70.0343ZM35.0179 69.9433C35.7339 69.6694 36.0748 69.7164 36.611 69.773C37.0256 69.8163 37.5426 69.9561 37.6355 70.2995C37.7295 70.6445 37.335 70.9032 37.201 70.7138C36.871 70.248 36.7063 70.1338 36.1352 70.0878C35.8262 70.075 35.4118 70.1457 35.1168 70.2939C34.9086 70.4105 34.3225 70.778 34.3774 71.5254C34.4474 71.8838 35.2242 72.0446 35.6123 72.0673C36.9353 72.1453 37.2594 72.5889 37.2633 72.9141C37.2762 73.2567 36.8572 74.0186 36.0374 73.9575C36.0374 73.9575 35.103 74.0669 35.2974 73.5543C35.3755 73.349 35.5795 73.3033 35.7711 73.5075C36.1017 73.86 36.5106 73.5098 36.6029 73.4149C36.9001 73.112 36.7693 72.7089 36.3757 72.6342C36.1553 72.5924 35.3352 72.5895 34.9425 72.5705C34.1957 72.5347 33.6123 72.3189 33.6024 71.6595C33.5965 70.6129 34.5766 70.1123 35.0179 69.9433ZM11.9621 68.6958C12.1731 68.6925 12.3522 68.7514 12.4996 68.8735C12.7075 69.0488 12.8742 69.3536 12.9988 69.7872L13.64 71.9947C13.7336 72.3145 13.8388 72.5187 13.9555 72.6071C14.0609 72.6909 14.1856 72.7312 14.3288 72.7293C14.4635 72.7271 14.5757 72.6907 14.6647 72.6201C14.7539 72.5494 14.8106 72.4123 14.8344 72.2088L15.1659 72.2034C15.165 72.297 15.1644 72.3572 15.1642 72.3845C15.1611 72.6736 15.0625 72.9096 14.8674 73.0922C14.7137 73.2357 14.5142 73.3098 14.2687 73.3141C14.0498 73.3174 13.8582 73.2537 13.6938 73.1217C13.5289 72.9902 13.3813 72.6983 13.2501 72.2471L12.9507 71.0811L11.6137 73.2935L10.7346 73.3083L12.6618 70.2356L12.5993 70.0078C12.5186 69.7086 12.4158 69.5123 12.2912 69.4182C12.1665 69.3242 12.0312 69.2787 11.8851 69.2811C11.7541 69.2832 11.6378 69.3218 11.5361 69.3972C11.4342 69.4724 11.3622 69.6163 11.32 69.8286L11.0117 69.8336C11.0244 69.4507 11.1392 69.1538 11.3568 68.9426C11.5203 68.7824 11.722 68.7001 11.9621 68.6958ZM18.9666 70.0758C19.302 70.07 19.63 70.1346 19.9515 70.2683C20.2725 70.4022 20.5168 70.5913 20.6841 70.8349C20.8513 71.0787 20.9333 71.3246 20.9312 71.5734C20.9283 71.8499 20.8345 72.1197 20.6504 72.3836C20.4663 72.6469 20.2117 72.8582 19.8872 73.0177C19.5622 73.1769 19.2019 73.2599 18.8061 73.2664C18.2504 73.2762 17.7807 73.1375 17.3973 72.8504C17.0138 72.5639 16.8244 72.2118 16.8283 71.794C16.8314 71.5119 16.9305 71.2341 17.126 70.961C17.3212 70.6884 17.5896 70.4739 17.9311 70.3183C18.2727 70.1627 18.6178 70.0819 18.9666 70.0758ZM29.7887 69.8885C30.1244 69.883 30.4528 69.947 30.7741 70.0813C31.0949 70.2148 31.3391 70.404 31.5064 70.6475C31.6735 70.8913 31.7557 71.1377 31.7535 71.3858C31.7507 71.6627 31.6575 71.9327 31.4727 72.196C31.2886 72.4593 31.0341 72.6708 30.7098 72.8303C30.3846 72.9898 30.0242 73.0725 29.6284 73.0795C29.0725 73.0886 28.6028 72.9499 28.2199 72.6634C27.8361 72.3765 27.6465 72.0244 27.6509 71.607C27.6535 71.3245 27.7526 71.0471 27.9485 70.7741C28.1436 70.5011 28.4119 70.2865 28.7535 70.1307C29.0951 69.9754 29.4399 69.8945 29.7887 69.8885ZM18.7971 70.4199C18.5275 70.4243 18.2893 70.5194 18.0818 70.7051C17.8745 70.8904 17.7691 71.1615 17.7656 71.5188C17.7614 71.9279 17.8745 72.2657 18.1054 72.5318C18.3359 72.7984 18.6313 72.9286 18.9917 72.9221C19.2557 72.9178 19.4881 72.8226 19.6882 72.6365C19.8887 72.4501 19.9909 72.1726 19.9946 71.8046C19.9994 71.3073 19.8474 70.9333 19.5388 70.6819C19.3171 70.5025 19.0702 70.4152 18.7971 70.4199ZM29.6194 70.2326C29.3498 70.2369 29.1117 70.332 28.9044 70.5177C28.6968 70.703 28.5914 70.9743 28.5879 71.3314C28.5838 71.7405 28.6968 72.0784 28.9278 72.3447C29.1583 72.611 29.4539 72.7412 29.8141 72.7347C30.078 72.7304 30.3105 72.635 30.5106 72.4491C30.7111 72.263 30.8132 71.9854 30.8169 71.6175C30.8222 71.1204 30.6702 70.7459 30.3612 70.4946C30.1392 70.3153 29.8924 70.2278 29.6194 70.2326ZM21.8745 56.5046C21.7628 57.2134 21.6537 57.9082 21.5513 58.5613C22.0602 59.1431 22.596 59.4644 22.596 59.4644L22.4127 60.1308H21.3051C21.0724 61.6143 20.915 62.6256 20.915 62.6256H19.2056V66.8712C20.7092 67.0736 22.2166 67.4258 23.6487 67.9835V56.5603H21.8745V56.5046ZM27.2 56.5603H25.418V67.9822C26.8527 67.4236 28.3625 67.0715 29.869 66.8691V62.6256H28.151C28.151 62.6256 27.9934 61.6143 27.7607 60.1308H26.6951L26.5118 59.4644C26.5118 59.4644 27.0226 59.1585 27.521 58.6018C27.4193 57.9543 27.3111 57.2646 27.2 56.5603ZM18.2064 20.8938H17.4262V66.6974C17.6853 66.7137 17.9456 66.7341 18.2064 66.7583V20.8938ZM31.6481 20.8938H30.8677V66.7566C31.1288 66.7325 31.3888 66.7122 31.6481 66.6961V20.8938ZM16.3024 20.8938H15.5027V66.6409C15.7671 66.64 16.0339 66.6431 16.3024 66.6491V20.8938ZM33.5714 20.8938H32.7717V66.648C33.0404 66.642 33.307 66.6392 33.5714 66.64V20.8938ZM20.5365 60.1308H19.2056V61.9588H20.2419C20.2419 61.9588 20.3576 61.2413 20.5365 60.1308ZM29.869 60.1308H28.5298C28.7082 61.2413 28.8241 61.9588 28.8241 61.9588H29.869V60.1308ZM20.4687 20.8938H19.2056V59.4088H20.6526C20.6742 59.2731 20.697 59.1329 20.7199 58.9901C20.264 58.2969 19.4934 56.8516 19.9377 55.52C20.2931 54.4549 20.8995 53.781 21.6266 53.3598C22.0554 50.6984 22.4328 48.3572 22.4945 47.9795C22.6393 47.0885 22.9312 45.9346 23.6487 45.4431V24.0449C22.0611 23.704 20.8124 22.4667 20.4687 20.8938ZM29.869 20.8938H28.598C28.2538 22.4667 27.0054 23.704 25.418 24.0449V45.4433C26.1348 45.9352 26.4265 47.0887 26.5715 47.9795C26.6327 48.3559 27.008 50.6834 27.4351 53.3344C28.1827 53.7533 28.8071 54.4326 29.1701 55.52C29.6253 56.8838 28.8044 58.3695 28.3542 59.0415C28.3745 59.1667 28.3942 59.2894 28.4134 59.4088H29.869V20.8938ZM27.6096 54.417C27.7889 55.5317 27.9713 56.6639 28.1383 57.701C28.3986 57.1729 28.5431 56.5395 28.4029 55.8171C28.2908 55.2409 27.9964 54.7787 27.6096 54.417ZM21.4483 54.4684C21.0869 54.8224 20.8115 55.2669 20.7048 55.8171C20.5699 56.5098 20.6974 57.1213 20.9379 57.6362C21.0995 56.6327 21.2751 55.5434 21.4483 54.4684ZM23.6487 53.4211C23.2107 53.4922 22.7342 53.6352 22.2918 53.8642C22.1866 54.5269 22.0788 55.2092 21.9721 55.8871H23.6487V53.4211ZM25.418 53.4142V55.8871H27.0937C26.9857 55.2017 26.8766 54.5117 26.7705 53.8421C26.327 53.6194 25.8525 53.4803 25.418 53.4142ZM23.6487 46.5907C23.3797 47.0404 23.3113 47.7277 23.1671 48.4792C23.0821 48.9245 22.7825 50.7785 22.4282 53.0042C22.8212 52.877 23.2332 52.8018 23.6487 52.7608V46.5907ZM25.418 46.592V52.7569C25.8319 52.7953 26.2426 52.8666 26.6352 52.9894C26.282 50.7703 25.9837 48.9236 25.8989 48.4792C25.7548 47.7284 25.6865 47.0414 25.418 46.592ZM23.6487 20.8938H21.5894C21.8855 21.871 22.6622 22.6409 23.6487 22.9343V20.8938ZM27.4771 20.8938H25.418V22.9343C26.404 22.6409 27.1812 21.871 27.4771 20.8938ZM23.6487 5.99481C18.0735 8.72146 16.2047 16.2435 15.6807 19.1403H16.4581C18.2029 11.1445 22.7755 9.02916 23.6487 8.69394V5.99481ZM25.418 5.99091V8.6909C26.27 9.01594 30.8657 11.1187 32.616 19.1403H33.3934C32.8694 16.2422 30.9991 8.71431 25.418 5.99091ZM23.6487 9.99366C19.9069 11.3996 18.1544 17.0147 17.616 19.1403H18.4452C19.2069 15.4994 22.8111 13.049 23.6487 12.5236V9.99366ZM25.418 9.99041V12.5186C26.2402 13.0336 29.8648 15.4881 30.6291 19.1403H31.4583C30.9195 17.0132 29.165 11.3913 25.418 9.99041ZM23.6487 13.9535C21.067 15.4277 19.9707 17.6925 19.5161 19.1403H20.4687C20.8124 17.5673 22.0611 16.3302 23.6487 15.9891V13.9535ZM25.418 13.949V15.9891C27.0054 16.3302 28.2538 17.5673 28.598 19.1403H29.5584C29.1034 17.691 28.0049 15.4229 25.418 13.949ZM23.6487 17.0999C22.6622 17.3933 21.8855 18.1632 21.5894 19.1403H23.6487V17.0999ZM25.418 17.0999V19.1403H27.4771C27.1814 18.1632 26.404 17.3931 25.418 17.0999Z" fill="#2A4385"/>
</svg>
