<svg width="64" height="64" viewBox="0 0 64 64" fill="none" xmlns="http://www.w3.org/2000/svg">
<g id="ad_units">
<mask id="mask0_2190_2500" style="mask-type:alpha" maskUnits="userSpaceOnUse" x="0" y="0" width="64" height="64">
<rect id="Bounding box" width="64" height="64" fill="#2A4385"/>
</mask>
<g mask="url(#mask0_2190_2500)">
<path id="ad_units_2" d="M22.6667 21.5275V18.9075H41.3333V21.5275H22.6667ZM20.3077 58.2071C19.0803 58.2071 18.0556 57.8032 17.2333 56.9954C16.4111 56.1875 16 55.1807 16 53.9749V10.0399C16 8.83401 16.4111 7.82718 17.2333 7.01936C18.0556 6.21153 19.0803 5.80762 20.3077 5.80762H43.6923C44.9197 5.80762 45.9444 6.21153 46.7667 7.01936C47.5889 7.82718 48 8.83401 48 10.0399V53.9749C48 55.1807 47.5889 56.1875 46.7667 56.9954C45.9444 57.8032 44.9197 58.2071 43.6923 58.2071H20.3077ZM18.6667 51.6572V53.9749C18.6667 54.3779 18.8376 54.7474 19.1795 55.0833C19.5214 55.4192 19.8974 55.5871 20.3077 55.5871H43.6923C44.1026 55.5871 44.4786 55.4192 44.8205 55.0833C45.1624 54.7474 45.3333 54.3779 45.3333 53.9749V51.6572H18.6667ZM18.6667 49.0372H45.3333V14.9775H18.6667V49.0372ZM18.6667 12.3576H45.3333V10.0399C45.3333 9.63682 45.1624 9.26734 44.8205 8.93141C44.4786 8.59553 44.1026 8.42759 43.6923 8.42759H20.3077C19.8974 8.42759 19.5214 8.59553 19.1795 8.93141C18.8376 9.26734 18.6667 9.63682 18.6667 10.0399V12.3576Z" fill="#2A4385"/>
</g>
</g>
</svg>
