<svg width="270" height="270" viewBox="0 0 270 270" fill="none" xmlns="http://www.w3.org/2000/svg">
<path d="M122.946 15.7072C129.15 8.03269 140.85 8.03269 147.054 15.7072L159.355 30.924C163.458 36 170.168 38.1801 176.471 36.4854L195.367 31.4049C204.896 28.8425 214.363 35.72 214.871 45.5754L215.878 65.1162C216.214 71.6345 220.361 77.3421 226.456 79.676L244.729 86.6723C253.945 90.2009 257.561 101.329 252.179 109.601L241.508 126.002C237.949 131.472 237.949 138.528 241.508 143.998L252.179 160.399C257.561 168.671 253.945 179.799 244.729 183.328L226.456 190.324C220.361 192.658 216.214 198.365 215.878 204.884L214.871 224.425C214.363 234.28 204.896 241.157 195.367 238.595L176.471 233.515C170.168 231.82 163.458 234 159.355 239.076L147.054 254.293C140.85 261.967 129.15 261.967 122.946 254.293L110.645 239.076C106.542 234 99.8323 231.82 93.5291 233.515L74.6335 238.595C65.1035 241.157 55.6374 234.28 55.1295 224.425L54.1222 204.884C53.7863 198.365 49.6394 192.658 43.5439 190.324L25.2708 183.328C16.0548 179.799 12.4391 168.671 17.8209 160.399L28.4918 143.998C32.0514 138.528 32.0514 131.472 28.4918 126.002L17.8209 109.601C12.4391 101.329 16.0548 90.2009 25.2708 86.6723L43.5439 79.676C49.6394 77.3421 53.7863 71.6345 54.1222 65.1162L55.1295 45.5754C55.6374 35.72 65.1035 28.8425 74.6335 31.4049L93.5291 36.4854C99.8323 38.1801 106.542 36 110.645 30.924L122.946 15.7072Z" stroke="#0047FF"/>
<circle cx="134.645" cy="218.644" r="4" fill="white"/>
<path d="M110.318 212.188L106.076 222.12L104.045 221.253L108.288 211.321C108.828 210.055 108.902 208.965 108.511 208.049C108.098 207.142 107.303 206.437 106.126 205.935C104.948 205.432 103.89 205.345 102.949 205.674C102.002 206.017 101.258 206.822 100.717 208.087L96.4751 218.019L94.4667 217.161L98.7089 207.229C99.4756 205.434 100.612 204.302 102.118 203.831C103.609 203.355 105.2 203.478 106.892 204.2C108.57 204.917 109.752 205.978 110.438 207.385C111.125 208.792 111.085 210.393 110.318 212.188Z" fill="#0047FF"/>
<path d="M78.192 206.299C76.7432 205.113 75.9298 203.859 75.7519 202.535C75.5616 201.201 75.9174 199.983 76.8191 198.881C77.7208 197.778 78.837 197.172 80.1676 197.062C81.4758 196.954 82.879 197.513 84.3774 198.739L86.8665 200.775L91.213 195.463L92.9033 196.846L82.3714 209.718L78.192 206.299ZM85.7723 202.113L83.2832 200.076C82.3544 199.316 81.4949 198.964 80.7046 199.021C79.8918 199.079 79.1714 199.492 78.5432 200.26C77.2159 201.882 77.4687 203.443 79.3014 204.943L81.7905 206.979L85.7723 202.113Z" fill="#0047FF"/>
<path d="M76.161 183.131L74.4188 180.6C73.23 178.874 71.8482 177.883 70.2733 177.627C68.6983 177.371 67.0609 177.828 65.3609 178.999C63.661 180.17 62.6497 181.536 62.327 183.099C62.0043 184.661 62.4373 186.306 63.626 188.032L65.3683 190.562L76.161 183.131ZM62.104 189.08C60.5795 186.866 59.9965 184.694 60.3551 182.563C60.7136 180.431 61.9603 178.631 64.0951 177.161C66.2299 175.691 68.337 175.182 70.4164 175.634C72.4826 176.096 74.278 177.434 75.8024 179.648L78.7833 183.977L65.0849 193.409L62.104 189.08Z" fill="#0047FF"/>
<path d="M63.9664 154.1L60.8651 156.418L63.052 163.479L66.9201 163.637L67.5805 165.769L49.9037 164.913L49.1937 162.62L63.2989 151.945L63.9664 154.1ZM61.2168 163.394L59.3991 157.525L52.1005 163.001L61.2168 163.394Z" fill="#0047FF"/>
<path d="M47.3545 144.617L45.6028 144.649L45.4021 133.683L47.1538 133.651L47.2342 138.042L62.1117 137.77L62.1517 139.954L47.2742 140.226L47.3545 144.617Z" fill="#0047FF"/>
<path d="M48.9299 112.099L50.61 112.504L49.0597 118.944L54.5664 120.269L55.9481 114.529L57.6048 114.928L56.223 120.668L61.8697 122.027L63.42 115.587L65.1 115.992L63.0386 124.555L46.8685 120.663L48.9299 112.099Z" fill="#0047FF"/>
<path d="M58.3772 99.8561C58.9114 100.146 59.4345 100.239 59.9464 100.135C60.4582 100.031 60.9246 99.7924 61.3453 99.4201C61.7661 99.0478 62.1925 98.6148 62.6245 98.1211C63.0642 97.6135 63.5211 97.1242 63.9954 96.6535C64.4632 96.1611 64.9496 95.7516 65.4547 95.4252C65.9598 95.0987 66.5457 94.9253 67.2122 94.905C67.8787 94.8847 68.5846 95.077 69.3297 95.4818C70.4685 96.1004 71.2229 97.0747 71.593 98.4047C71.963 99.7346 71.7432 101.145 70.9336 102.635C70.1316 104.111 69.1412 105.13 67.9623 105.691C66.7693 106.245 65.5893 106.205 64.4224 105.571L65.5337 103.525C66.225 103.828 66.9006 103.858 67.5603 103.616C68.2277 103.359 68.8135 102.767 69.3175 101.839C69.8216 100.911 69.9836 100.043 69.8035 99.2352C69.6233 98.4272 69.2169 97.8513 68.5842 97.5076C67.9375 97.1563 67.3652 97.0366 66.8674 97.1485C66.3555 97.2529 65.8892 97.4912 65.4685 97.8635C65.0477 98.2358 64.6245 98.6796 64.1989 99.1949C63.7669 99.6886 63.3099 100.178 62.828 100.663C62.3538 101.133 61.8642 101.532 61.359 101.858C60.8399 102.177 60.247 102.347 59.5805 102.367C58.8999 102.38 58.18 102.18 57.4208 101.767C56.1836 101.095 55.4292 100.121 55.1576 98.8445C54.8795 97.5463 55.1224 96.1943 55.8862 94.7883C56.6576 93.3683 57.599 92.4231 58.7104 91.9525C59.8154 91.4603 60.9787 91.4641 62.2003 91.9638L61.0432 94.0938C60.4362 93.8369 59.7952 93.8437 59.1201 94.1143C58.4527 94.3709 57.8937 94.9139 57.4431 95.7434C57.0001 96.5588 56.8482 97.3412 56.9874 98.0905C57.1125 98.8322 57.5758 99.4207 58.3772 99.8561Z" fill="#0047FF"/>
<path d="M93.2839 73.1592C93.639 74.1783 93.6524 75.21 93.3244 76.2542C93.0004 77.2762 92.3253 78.1423 91.2991 78.8525C90.2728 79.5627 89.1121 79.8114 87.8169 79.5987C86.5125 79.3728 85.4552 78.6744 84.6448 77.5034C83.8345 76.3325 83.5448 75.1126 83.7757 73.8436C84.0198 72.5656 84.6879 71.5487 85.7799 70.793C85.9246 70.6929 86.1366 70.6337 86.4159 70.6155L85.2168 70.5698C83.4895 70.0139 82.3209 69.2953 81.7108 68.4138C81.0917 67.5191 80.8839 66.5441 81.0875 65.4887C81.2951 64.411 81.9384 63.4989 83.0172 62.7523C84.1092 61.9965 85.1915 61.7048 86.2641 61.877C87.3277 62.0361 88.1508 62.5366 88.7335 63.3786C88.9247 63.6549 89.0881 63.9894 89.2236 64.3821L87.408 65.6385C87.323 65.3471 87.144 65.004 86.8708 64.6093C86.5977 64.2146 86.1828 63.9666 85.6263 63.8653C85.0829 63.7549 84.5546 63.8773 84.0415 64.2324C83.5416 64.5784 83.241 65.0296 83.1397 65.5862C83.0515 66.1336 83.1941 66.6771 83.5674 67.2165C83.9407 67.7559 84.7077 68.2175 85.8683 68.6012L99.4588 72.9721L97.2682 74.4881L93.2839 73.1592ZM88.2498 77.6938C89.0563 77.8751 89.7884 77.7381 90.4463 77.2828C91.1041 76.8276 91.4969 76.1861 91.6245 75.3584C91.7521 74.5306 91.5701 73.7615 91.0785 73.0511C90.5777 72.3274 89.9175 71.8796 89.0978 71.7074C88.2914 71.5261 87.5526 71.6676 86.8816 72.132C86.2238 72.5873 85.8377 73.2242 85.7232 74.0428C85.5996 74.8483 85.7882 75.6128 86.2889 76.3365C86.7897 77.0601 87.4433 77.5125 88.2498 77.6938Z" fill="#0047FF"/>
<path d="M120.659 58.4566L121.601 65.2557L119.437 65.5552L117.156 49.0804L122.505 48.3398C124.359 48.083 125.833 48.3394 126.924 49.109C128.032 49.8763 128.677 50.9177 128.859 52.2331C129.039 53.5327 128.833 54.6677 128.24 55.6382C127.648 56.6086 126.654 57.3035 125.258 57.7229L130.753 63.9884L128.043 64.3637L122.775 58.1636L120.659 58.4566ZM119.56 50.5163L120.422 56.7449L123.608 56.3038C124.796 56.1392 125.639 55.748 126.135 55.1302C126.644 54.4943 126.831 53.685 126.695 52.7024C126.408 50.6262 125.091 49.7505 122.745 50.0752L119.56 50.5163Z" fill="#0047FF"/>
<path d="M150.238 48.6453L150.025 50.3601L143.452 49.542L142.752 55.1626L148.611 55.8918L148.4 57.5827L142.542 56.8535L141.824 62.6171L148.398 63.4352L148.184 65.15L139.444 64.0621L141.498 47.5574L150.238 48.6453Z" fill="#0047FF"/>
<path d="M164.096 70.2501C162 69.3323 160.525 67.8133 159.672 65.693C158.819 63.5727 158.884 61.3914 159.866 59.1489C160.854 56.8919 162.413 55.3652 164.544 54.5688C166.68 53.7579 168.841 53.8305 171.024 54.7868C172.607 55.48 173.851 56.4698 174.754 57.7564C175.673 59.0494 176.117 60.5278 176.087 62.1915L173.669 61.1326C173.511 59.0198 172.37 57.4982 170.245 56.5676C168.588 55.8423 166.977 55.7918 165.411 56.4161C163.867 57.0322 162.7 58.2415 161.91 60.0443C161.121 61.847 161.02 63.5322 161.609 65.1C162.212 66.6742 163.312 67.811 164.91 68.5106C166.522 69.2166 168.011 69.327 169.376 68.8419C170.756 68.3633 171.867 67.3824 172.708 65.8995L166.421 63.1461L167.114 61.5632L175.512 65.2408L174.819 66.8237C173.753 68.6978 172.228 69.9684 170.241 70.6356C168.255 71.3028 166.206 71.1743 164.096 70.2501Z" fill="#0047FF"/>
<path d="M178.513 78.3926L188.625 65.1877L190.359 66.5156L180.247 79.7205L178.513 78.3926Z" fill="#0047FF"/>
<path d="M197.48 78.9432C197.017 79.3368 196.742 79.7911 196.654 80.3061C196.567 80.8211 196.621 81.342 196.816 81.8688C197.012 82.3955 197.262 82.9494 197.566 83.5305C197.881 84.1237 198.172 84.7264 198.44 85.3385C198.731 85.9525 198.937 86.5539 199.059 87.1428C199.181 87.7317 199.132 88.3406 198.91 88.9695C198.689 89.5985 198.255 90.1874 197.608 90.7363C196.62 91.5752 195.44 91.9272 194.066 91.7925C192.692 91.6577 191.456 90.944 190.358 89.6512C189.271 88.3706 188.678 87.0793 188.58 85.7773C188.494 84.4649 188.957 83.3789 189.969 82.5193L191.476 84.2938C190.944 84.8293 190.673 85.4485 190.661 86.1513C190.659 86.8663 191 87.6263 191.684 88.4312C192.367 89.2361 193.118 89.7004 193.937 89.8239C194.755 89.9474 195.439 89.7761 195.988 89.3101C196.549 88.8337 196.867 88.3432 196.942 87.8385C197.03 87.3235 196.976 86.8026 196.78 86.2758C196.585 85.7491 196.324 85.1943 195.997 84.6114C195.692 84.0303 195.401 83.4276 195.122 82.8033C194.854 82.1912 194.659 81.5907 194.537 81.0018C194.427 80.4026 194.483 79.7885 194.704 79.1595C194.938 78.5202 195.384 77.9209 196.043 77.3617C197.116 76.4503 198.297 76.0982 199.586 76.3055C200.897 76.5146 202.07 77.2289 203.106 78.4485C204.152 79.6803 204.694 80.8994 204.731 82.1057C204.792 83.3139 204.369 84.3974 203.462 85.3564L201.893 83.5088C202.351 83.0354 202.576 82.4351 202.567 81.7079C202.569 80.9928 202.264 80.2756 201.653 79.556C201.052 78.8486 200.378 78.4247 199.629 78.2841C198.892 78.1332 198.176 78.3529 197.48 78.9432Z" fill="#0047FF"/>
<path d="M212.239 94.5937L213.828 93.8542L218.457 103.797L216.869 104.537L215.015 100.555L201.525 106.836L200.604 104.856L214.093 98.5753L212.239 94.5937Z" fill="#0047FF"/>
<path d="M213.239 120.293L206.471 121.437L206.107 119.283L222.507 116.511L223.407 121.836C223.719 123.682 223.506 125.162 222.77 126.276C222.036 127.406 221.014 128.082 219.705 128.303C218.411 128.522 217.27 128.35 216.283 127.786C215.295 127.223 214.571 126.25 214.11 124.868L208.011 130.547L207.555 127.85L213.595 122.399L213.239 120.293ZM221.143 118.957L214.943 120.005L215.479 123.176C215.679 124.359 216.095 125.189 216.728 125.666C217.378 126.157 218.193 126.319 219.171 126.154C221.238 125.805 222.074 124.463 221.679 122.128L221.143 118.957Z" fill="#0047FF"/>
<path d="M206.962 150.648L210.74 149.804L211.636 142.466L208.172 140.738L208.442 138.522L224.219 146.541L223.928 148.923L206.688 152.887L206.962 150.648ZM213.275 143.295L212.531 149.394L221.432 147.386L213.275 143.295Z" fill="#0047FF"/>
<path d="M218.236 166.101L219.847 166.789L215.54 176.876L213.929 176.188L215.654 172.149L201.969 166.306L202.826 164.298L216.511 170.141L218.236 166.101Z" fill="#0047FF"/>
<path d="M195.607 177.887L209.24 187.414L207.989 189.204L194.356 179.677L195.607 177.887Z" fill="#0047FF"/>
<path d="M182.296 197.502C182.21 199.174 182.815 200.75 184.113 202.229C185.411 203.709 186.889 204.508 188.548 204.628C190.218 204.76 191.738 204.224 193.109 203.021C194.468 201.829 195.197 200.391 195.296 198.709C195.393 197.048 194.793 195.478 193.495 193.999C192.197 192.52 190.707 191.719 189.026 191.598C187.344 191.477 185.824 192.012 184.465 193.205C183.106 194.397 182.383 195.829 182.296 197.502ZM183.183 191.743C184.975 190.171 187.012 189.448 189.294 189.575C191.587 189.713 193.54 190.703 195.155 192.543C196.78 194.395 197.501 196.455 197.319 198.722C197.147 201.001 196.165 202.926 194.373 204.499C192.581 206.071 190.55 206.788 188.28 206.651C186.008 206.537 184.06 205.553 182.435 203.701C180.81 201.849 180.084 199.783 180.255 197.504C180.415 195.236 181.391 193.315 183.183 191.743Z" fill="#0047FF"/>
<path d="M166.369 221.155L164.361 222.013L157.828 206.718L159.836 205.86L173.099 214.549L167.914 202.41L169.923 201.552L176.456 216.847L174.447 217.705L161.184 209.016L166.369 221.155Z" fill="#0047FF"/>
</svg>
